<svg 
  viewBox="0 0 614 126"   
  version="1.1" 
  xmlns="http://www.w3.org/2000/svg" 
  xmlns:xlink="http://www.w3.org/1999/xlink">
  <path 
    d="M102.4424,34.0329 C87.5214,34.0329 79.1214,44.4689 76.1964,48.6699 C71.0644,40.2079 64.5954,34.0329 51.1524,34.0329 C35.5334,34.0329 24.0904,47.1129 24.0904,47.1129 L24.0904,39.9389 C24.0904,35.3769 18.4684,34.0329 15.5224,34.0329 L0.5224,34.0329 L0.5224,121.9309 L19.4174,121.9309 C25.2564,121.9309 25.3214,116.2409 25.3214,113.3649 L25.3214,69.9889 C25.3214,61.6709 32.0634,54.9239 40.3844,54.9239 C48.7064,54.9239 55.4484,61.6709 55.4484,69.9889 L55.4484,121.9309 L80.0934,121.9309 L80.0934,69.9889 C80.0934,61.6709 86.8384,54.9239 95.1564,54.9239 C103.4744,54.9239 110.2194,61.6709 110.2194,69.9889 L110.2194,121.9309 L134.8644,121.9309 L134.8644,63.5969 C134.8644,48.9779 122.5444,34.0329 102.4424,34.0329">
  </path>
  <path 
    d="M203.188,99.029 C201.662,101.66 197.39,107.666 187.633,107.666 C177.885,107.666 173.61,101.66 172.084,99.029 C170.648,96.557 167.9,90.765 167.9,80.006 C167.9,69.105 170.558,63.465 172.084,60.892 C173.61,58.321 177.751,51.441 187.633,51.441 C197.52,51.441 201.662,58.321 203.188,60.892 C204.712,63.465 207.37,69.105 207.37,80.006 C207.37,90.765 204.626,96.557 203.188,99.029 M219.747,47.231 C215.887,43.31 206.341,34.163 187.633,34.163 C168.929,34.163 159.386,43.31 155.523,47.231 C151.659,51.146 143.443,61.266 143.443,80.085 C143.443,98.693 151.659,108.86 155.523,112.78 C159.386,116.693 169.002,124.941 187.633,124.941 C206.272,124.941 215.887,116.693 219.747,112.78 C223.611,108.86 231.832,98.693 231.832,80.085 C231.832,61.266 223.611,51.146 219.747,47.231">
  </path>
  <path 
    d="M283.8315,105.3474 C272.9215,105.3474 264.2215,96.4484 264.2215,79.4834 C264.2215,69.5034 266.5315,64.0904 270.1295,60.1904 C274.0835,55.9104 279.5325,54.5614 283.8315,54.5614 C300.3755,54.5614 303.4425,70.7054 303.4425,79.4834 C303.4425,87.1534 301.2105,105.3474 283.8315,105.3474 M292.3655,34.1624 C272.8645,34.1624 265.0545,46.7804 265.0545,46.7804 L265.0545,6.0704 C265.0545,1.5064 260.0825,0.1634 256.4865,0.1634 L240.4055,0.1634 L240.4055,121.9314 L258.0105,121.9314 C263.8515,121.9314 263.9165,116.2414 263.9165,113.3654 L263.9165,113.2094 C266.3665,116.9374 273.5185,124.9454 292.3655,124.9454 C316.3575,124.9454 327.7835,101.7264 327.7835,79.0584 C327.7835,48.1204 309.3225,34.1624 292.3655,34.1624">
  </path>
  <path 
    d="M403.3066,6.07 C403.3066,1.507 398.3376,0.164 394.7406,0.164 L378.6566,0.164 L378.6566,121.931 L403.3066,121.931 L403.3066,6.07 Z">
  </path>
  <polygon 
    points="337.872 48.391 362.518 48.391 362.518 23.746 337.872 23.746">
  </polygon>
  <path 
    d="M362.5176,121.9314 L362.5176,61.0474 C362.5176,56.4844 357.5466,55.1384 353.9536,55.1384 L337.8716,55.1384 L337.8716,121.9314">
  </path>
  <polygon 
    points="419.291 121.931 443.941 121.931 443.941 55.138 419.291 55.138">
  </polygon>
  <polygon 
    points="419.298 48.391 443.941 48.391 443.941 23.746 419.298 23.746">
  </polygon>
  <path 
    d="M570.9414,108.5925 C566.1054,108.5925 560.6034,105.8535 560.6034,97.3925 C560.6034,84.1275 589.7464,85.6545 591.2014,84.7455 L591.2014,93.4105 C591.2014,99.0895 583.5004,108.5925 570.9414,108.5925 M576.3734,33.9925 C558.3164,33.9925 543.7424,44.4575 541.3454,54.7335 C540.8064,57.0655 540.3634,60.1185 545.2524,60.8295 L561.6714,63.2215 C561.6714,58.8975 564.0174,51.1405 576.3734,51.1405 C592.8374,51.1405 591.2834,60.3875 591.2834,66.1775 C591.2834,78.1545 536.8844,66.6285 536.8844,100.0185 C536.8844,118.0685 550.4374,125.1155 564.3004,125.1155 C576.1284,125.1155 586.5564,118.5305 590.4494,114.8885 C590.5504,117.5415 590.7304,121.9315 594.1524,121.9315 L613.3674,121.9315 L613.3674,57.9585 C613.3674,36.7935 588.3984,33.9925 576.3734,33.9925">
  </path>
  <path 
    d="M524.1133,103.5945 L485.4493,103.5945 L528.4533,54.7505 L528.4533,36.2455 L457.5413,36.2455 L457.5413,54.7505 L499.4513,54.7505 L455.2583,103.5945 L455.2583,121.9315 L530.7363,121.9315 L530.7363,109.5005 C530.7363,104.4935 526.8963,103.5945 524.1133,103.5945">
  </path>
  </svg>